<svg width="42" height="42" viewBox="0 0 42 42" fill="none" xmlns="http://www.w3.org/2000/svg">
<circle cx="21" cy="21" r="21" fill="#46679B"/>
<path d="M22 29.4906C22.1582 28.0668 23.898 28 24.9812 28" stroke="black" stroke-width="2" stroke-linecap="round"/>
<path d="M18.0784 21C17.3759 21.1277 16.5233 22.1584 16.2072 22.7379C15.9323 23.2419 16.295 23.3445 16.6121 23.7994C16.8378 24.1232 17.1489 24.6893 17.5452 24.8214M11.4794 17.603C11.7745 17.603 12.1185 17.5025 12.1185 17.8826C12.1185 18.0627 11.8795 18.3948 11.7013 18.4019C11.3947 18.4142 11 18.5142 11 18.1223C11 17.7918 11.0827 17.7628 11.3995 17.7628M26.3595 17.0949C26.6247 17.0949 26.9204 17.042 26.9943 17.3746C27.0687 17.7095 26.6868 17.814 26.4394 17.814C25.7871 17.814 26.2002 16.6691 26.8389 17.0949" stroke="black" stroke-width="2" stroke-linecap="round"/>
<path d="M10.3761 11.2419C10.8791 11.2419 11.2903 11.1056 11.7683 10.9562C11.9662 10.8943 12.5825 10.7472 12.6617 10.5889M23 10C23.3057 10 23.5776 10.2226 23.8754 10.297C24.1943 10.3767 24.4619 10.4924 24.7938 10.4924C25.3319 10.4924 25.8896 10.5627 26.4468 10.5627" stroke="black" stroke-width="2" stroke-linecap="round"/>
<path d="M11.8682 23C11.8682 23.3042 11.8854 23.6102 11.8066 23.9072C11.6826 24.3747 11.4798 24.8349 11.2872 25.2778C11.0569 25.8075 10.8142 26.3326 10.5858 26.864C10.3717 27.3624 10.1543 27.843 10.0441 28.3773C9.98245 28.6759 10.0035 28.9885 10.0035 29.2915C10.0035 29.6072 10.9081 30.2015 10.9081 30.2015C10.9081 30.2015 11.3751 30.3934 11.9158 30.2015C12.4495 30.0121 12.958 29.6797 13.1282 29.1081C13.2577 28.6736 13.304 28.247 13.1898 27.8005C13.0852 27.3916 12.9078 26.9874 12.6998 26.6204C12.6586 26.5477 12.5707 26.287 12.4982 26.2508" stroke="black" stroke-linecap="round"/>
</svg>
