<svg width="42" height="42" viewBox="0 0 42 42" fill="none" xmlns="http://www.w3.org/2000/svg">
<circle cx="21" cy="21" r="21" fill="#3FCE7B"/>
<path d="M18 30.3925C18.581 30.3925 19.0936 30.5782 19.671 30.5782C20.0567 30.5782 20.8079 30.7031 21.1357 30.4647C21.4361 30.2462 21.921 29.9471 22.2703 29.7633C22.6799 29.5478 23.1645 29.3127 23.4772 29" stroke="black" stroke-width="2" stroke-linecap="round"/>
<path d="M18.0784 21C17.3759 21.1277 16.5233 22.1584 16.2072 22.7379C15.9323 23.2419 16.295 23.3445 16.6121 23.7994C16.8378 24.1232 17.1489 24.6893 17.5452 24.8214M11.4794 17.603C11.7745 17.603 12.1185 17.5025 12.1185 17.8826C12.1185 18.0627 11.8795 18.3948 11.7013 18.4019C11.3947 18.4142 11 18.5142 11 18.1223C11 17.7918 11.0827 17.7628 11.3995 17.7628M26.3595 17.0949C26.6247 17.0949 26.9204 17.042 26.9943 17.3746C27.0687 17.7095 26.6868 17.814 26.4394 17.814C25.7871 17.814 26.2002 16.6691 26.8389 17.0949" stroke="black" stroke-width="2" stroke-linecap="round"/>
<path d="M10.5482 10.5765C11.2846 10.5765 12.1905 10.4261 12.8928 10.6602M24.2808 10.0741C25.1436 10.0741 26.0361 10.1578 26.8765 10.1578" stroke="black" stroke-width="2" stroke-linecap="round"/>
</svg>
