<svg width="42" height="42" viewBox="0 0 42 42" fill="none" xmlns="http://www.w3.org/2000/svg">
<path d="M42 21C42 32.598 32.598 42 21 42C9.40202 42 0 32.598 0 21C0 9.40202 9.40202 0 21 0C32.598 0 42 9.40202 42 21Z" fill="#FFA340"/>
<path d="M20.3698 28.7879C20.9155 28.7879 21.5036 28.3254 21.962 28.0463C22.297 27.8424 23.7484 26.8853 24.0777 26.6722C24.2597 26.5552 24.4558 26.4667 24.6351 26.345C24.8124 26.2248 25.3499 25.8499 25.5 26C26 26.5 26.5 27.8832 26.5 28.5C26.5 29.5 26.2418 30.2873 26.0291 30.7835L26.0199 30.8048C25.702 31.5467 25.1999 32.0772 24.5828 32.54C23.8393 33.0977 22.6041 33.0629 21.8758 32.4964C21.4515 32.1664 21.017 31.7732 20.7198 31.3186C20.5753 31.0977 20.4057 30.9028 20.2714 30.674C20.1743 30.5085 20 30.1844 20 30.1844" stroke="black" stroke-width="2" stroke-linecap="round"/>
<path d="M18.0784 21C17.3759 21.1277 16.5233 22.1584 16.2072 22.7379C15.9323 23.2419 16.295 23.3445 16.6121 23.7994C16.8378 24.1232 17.1489 24.6893 17.5452 24.8214M11.4794 17.603C11.7745 17.603 12.1185 17.5025 12.1185 17.8826C12.1185 18.0627 11.8795 18.3948 11.7013 18.4019C11.3947 18.4142 11 18.5142 11 18.1223C11 17.7918 11.0827 17.7628 11.3995 17.7628M26.3595 17.0949C26.6247 17.0949 26.9204 17.042 26.9943 17.3746C27.0687 17.7095 26.6868 17.814 26.4394 17.814C25.7871 17.814 26.2002 16.6691 26.8389 17.0949" stroke="black" stroke-width="2" stroke-linecap="round"/>
<path d="M23.8765 10.9114C24.4003 10.5488 24.8974 10.3636 25.5 10.1578C25.7798 10.0623 26.0908 9.82286 26.3885 9.82286M11.2784 10.1578C12.0171 10.1578 12.5722 10.2388 13.2043 10.6602" stroke="black" stroke-width="2" stroke-linecap="round"/>
</svg>
