<svg width="42" height="42" viewBox="0 0 42 42" fill="none" xmlns="http://www.w3.org/2000/svg">
<circle cx="21" cy="21" r="21" fill="#C6AAC6"/>
<path d="M18.9999 29.8091C19.3565 29.3932 20.8596 29.4118 21.3475 29.3694C21.8748 29.3235 22.3955 29.0836 22.9033 29.2906" stroke="black" stroke-width="2" stroke-linecap="round"/>
<path d="M18.0784 21C17.3759 21.1277 16.5233 22.1584 16.2072 22.7379C15.9323 23.2419 16.295 23.3445 16.6121 23.7994C16.8378 24.1232 17.1489 24.6893 17.5452 24.8214M11.4794 17.603C11.7745 17.603 12.1185 17.5025 12.1185 17.8826C12.1185 18.0627 11.8795 18.3948 11.7013 18.4019C11.3947 18.4142 11 18.5142 11 18.1223C11 17.7918 11.0827 17.7628 11.3995 17.7628M26.3595 17.0949C26.6247 17.0949 26.9204 17.042 26.9943 17.3746C27.0687 17.7095 26.6868 17.814 26.4394 17.814C25.7871 17.814 26.2002 16.6691 26.8389 17.0949" stroke="black" stroke-width="2" stroke-linecap="round"/>
<path d="M10.4999 12.1307L12.5 11.5M23.5 11L25.8032 11.8051" stroke="black" stroke-width="2" stroke-linecap="round"/>
</svg>
